<svg width="342" height="338" viewBox="0 0 342 338" fill="none" xmlns="http://www.w3.org/2000/svg">
<path d="M181.687 0C235.397 2.51478 285.981 29.2573 318.918 84.9811C343.306 126.26 348.239 170.852 334.329 216.915C322.748 255.281 300.044 285.826 266.464 307.662C217.994 339.219 165.878 345.629 111.586 326.032C64.1878 308.919 30.5465 276.288 11.7956 229.213C-1.65477 195.601 -3.55436 161.007 5.85171 125.831C16.2995 86.7598 38.1449 55.6011 70.8058 32.1401C100.77 10.6418 134.442 0.061336 181.687 0Z" fill="#333333"/>
<path d="M162.202 332.227C108.554 329.957 60.2057 303.797 27.3304 250.926C14.4621 230.255 7.56842 207.254 5.1786 182.996C4.93349 180.42 5.45435 179.653 7.96672 181.003C11.7966 183.088 15.749 182.567 19.5482 180.911C22.7039 179.531 25.7678 179.408 28.893 180.849C33.0905 182.781 37.2573 182.781 41.4548 180.849C44.58 179.408 47.7051 179.5 50.7996 180.972C53.8329 182.413 57.0806 182.996 60.1751 181.831C63.1164 180.696 63.3921 182.015 63.7292 184.345C65.4756 196.797 69.428 208.573 75.5557 219.552C101.139 265.462 155.492 287.359 205.096 270.185C245.692 256.109 270.479 227.189 278.292 184.407C279.027 180.451 278.935 180.42 282.765 181.769C286.135 182.935 289.383 182.413 292.478 180.972C295.633 179.5 298.667 179.469 301.792 180.972C305.989 182.965 310.187 182.781 314.354 180.849C317.264 179.5 320.144 179.469 323.055 180.757C326.977 182.505 330.899 182.965 335.004 181.309C337.731 180.236 336.72 182.505 336.597 183.517C335.433 193.024 333.993 202.47 331.297 211.671C317.877 257.703 289.659 291.591 247.408 313.795C223.326 326.461 197.498 332.196 162.233 332.227H162.202Z" fill="#52A7B3"/>
<path d="M173.077 4.41626C218.698 5.3363 259.693 22.3264 292.752 57.1959C317.232 83.0184 331.479 113.84 335.861 149.231C336.106 151.163 335.8 151.837 333.839 152.788C329.243 155.027 325.045 155.027 320.48 152.788C317.141 151.163 313.525 151.469 310.186 153.248C306.662 155.088 303.261 155.15 299.676 153.31C295.908 151.347 292.017 151.285 288.126 153.126C287.023 153.647 285.889 154.138 284.725 154.475C280.527 155.702 278.566 154.414 277.77 150.212C271.458 117.091 253.657 92.0348 224.489 75.3207C193.942 57.84 161.741 55.7545 129.57 69.3098C94.5504 84.0611 72.368 110.558 64.5245 148.28C63.3908 153.678 59.5304 156.008 54.138 154.352C53.2801 154.076 52.4528 153.8 51.6562 153.402C47.9183 151.561 44.1497 151.561 40.4118 153.402C36.7352 155.18 33.2117 155.15 29.5657 153.279C25.4601 151.163 21.3546 152.052 17.3715 153.8C15.3494 154.659 13.3272 154.996 11.1825 154.536C5.66754 153.371 5.2386 152.85 6.06584 147.299C11.9791 106.479 30.1172 72.1926 61.3993 45.2661C92.7734 18.1862 129.479 4.99895 173.077 4.41626Z" fill="#52A7B3"/>
<path d="M65.5967 168.552C65.5355 111.233 113.025 64.0659 170.933 63.9739C228.748 63.8819 276.176 111.172 276.207 168.951C276.207 225.38 228.472 272.762 171.576 272.792C113.301 272.792 65.658 225.932 65.5967 168.552Z" fill="white"/>
<path d="M279.456 167.264C279.456 166.926 279.456 166.589 279.456 166.251C279.333 163.798 278.353 160.946 279.303 159.045C280.344 156.99 283.562 158.922 285.706 158.032C286.717 157.603 287.851 157.419 288.831 156.928C291.926 155.303 295.02 155.272 298.115 156.775C302.895 159.106 307.521 158.83 312.178 156.468C314.568 155.242 317.142 155.18 319.562 156.376C324.311 158.768 329.06 159.29 333.932 156.714C335.831 155.702 336.842 156.284 336.842 158.523C336.873 163.859 336.934 169.196 337.026 174.532C337.026 175.851 336.352 176.433 335.249 177.016C331.511 178.948 327.804 178.917 324.035 177.108C320.175 175.237 316.284 175.237 312.515 177.323C309.298 179.101 306.081 178.917 302.925 177.384C298.697 175.329 294.622 175.36 290.425 177.384C289.352 177.905 288.127 178.273 286.932 178.427C281.601 179.009 279.241 176.832 279.364 171.588C279.395 170.146 279.364 168.705 279.364 167.264H279.456Z" fill="white"/>
<path d="M62.4724 167.325C62.4724 169.226 62.4418 171.097 62.4724 172.998C62.595 177.139 61.829 178.028 57.6928 178.427C55.64 178.641 53.7097 178.212 51.8714 177.323C48.0416 175.391 44.1811 175.36 40.3206 177.139C36.7665 178.795 33.3656 178.825 29.7809 177.077C26.2575 175.36 22.397 175.114 18.8429 177.016C14.2471 179.469 10.019 177.844 5.66826 176.403C4.50399 176.004 4.59591 175.084 4.62655 174.256C4.65719 169.042 4.77974 163.829 4.81038 158.584C4.81038 156.56 5.6989 156.315 7.29211 157.082C11.7347 159.228 16.1161 158.799 20.4668 156.775C23.2855 155.456 26.0736 155.61 28.8311 156.959C33.0899 159.044 37.3487 159.136 41.6381 157.051C44.3956 155.702 47.245 155.732 50.0331 156.928C53.6178 158.462 57.2945 159.075 61.063 158.032C62.8707 157.542 62.8707 158.431 62.7788 159.719C62.595 162.265 62.4724 164.81 62.3498 167.386C62.4111 167.386 62.4724 167.386 62.503 167.386L62.4724 167.325Z" fill="white"/>
<path d="M171.239 268.682C114.894 268.529 69.5491 223.355 69.733 167.539C69.9168 112.552 115.783 67.9296 171.913 68.1136C226.94 68.2976 272.285 113.901 272.102 168.889C271.918 223.508 226.144 268.805 171.239 268.652V268.682Z" fill="white"/>
<path d="M72.8896 167.907C73.0428 116.968 115.048 71.3951 170.535 71.3338C224.551 71.2725 268.793 114.637 268.947 167.877C269.1 221.546 225.011 265.462 170.933 265.554C117.132 265.646 73.0428 221.76 72.8896 167.907Z" fill="#333333"/>
<path d="M218.271 173.152C216.8 190.97 211.224 206.979 197.713 219.43C194.557 222.344 190.819 224.276 186.866 225.84C175.806 230.287 162.876 222.957 159.751 215.321C157.606 210.076 154.206 207.623 150.253 204.587C137.109 194.436 128.071 181.31 124.118 165.056C122.372 157.91 121.974 150.55 128.377 144.968C139.438 135.338 151.356 135.43 162.478 145.152C168.698 150.58 173.447 157.082 176.572 164.718C177.46 166.896 178.104 167.141 179.85 165.393C184.844 160.333 190.635 156.254 197.682 154.874C211.347 152.206 217.75 158.585 218.21 169.809C218.24 170.913 218.21 172.017 218.21 173.152H218.271Z" fill="white"/>
<path d="M185.363 140.889C183.035 142.514 181.717 145.029 180.032 147.206C178.47 149.261 177.673 148.28 177.122 146.654C176.417 144.6 176.693 142.453 177.122 140.398C178.991 131.872 184.138 125.953 191.859 122.151C193.146 121.507 194.494 120.955 195.811 120.402C202.552 117.55 209.445 114.913 212.754 107.031C214.378 109.393 214.194 111.447 214.44 113.349C216.707 129.971 209.139 142.913 193.513 148.985C188.335 151.009 183.096 152.757 177.857 156.836C179.757 150.764 183.004 146.532 185.915 142.115C186.712 140.306 187.937 138.865 189.408 137.607C187.998 138.681 187.202 140.459 185.302 140.889H185.363Z" fill="white"/>
<path d="M175.16 221.607C183.892 217.682 188.151 211.425 189.959 203.237C190.571 200.477 192.134 198.116 194.003 196.03C197.189 192.473 199.273 188.394 200.039 183.64C200.437 181.064 201.938 178.917 203.317 176.771C205.155 173.888 206.228 170.79 206.044 167.325C205.921 165.331 204.972 164.135 202.919 164.227C200.866 164.319 200.835 165.914 200.958 167.417C201.08 168.889 201.203 170.484 200.406 171.649C195.198 179.255 194.708 189.222 187.998 196.122C185.639 198.545 185.148 202.102 184.168 205.261C182.544 210.383 179.541 214.4 174.517 216.516C168.45 219.092 163.334 215.842 162.69 209.248C162.108 203.237 164.283 197.809 166.612 192.534C170.809 183.058 176.723 174.777 184.536 167.908C189.377 163.675 194.708 160.271 201.234 159.443C208.648 158.523 213.06 161.345 213.213 168.46C213.642 188.394 207.024 205.568 190.97 218.172C186.803 221.454 181.717 222.865 175.191 221.546L175.16 221.607Z" fill="#333333"/>
<path d="M128.193 158.155C128.193 153.953 128.928 149.844 133.064 147.942C137.139 146.072 140.601 148.525 143.665 151.009C146.116 152.972 148.077 155.456 148.904 158.584C150.559 164.81 153.715 170.238 157.637 175.298C160.455 178.917 161.252 183.364 162.692 187.566C162.968 188.363 162.6 189.068 162.294 189.804C160.731 193.607 159.046 197.379 158.372 201.458C158.065 203.237 157.269 203.452 155.951 202.532C153.868 201.059 151.693 199.679 149.824 197.962C139.897 188.792 132.727 177.905 129.051 164.779C128.438 162.632 128.223 160.424 128.162 158.186L128.193 158.155Z" fill="#333333"/>
<path d="M141.889 143.158C145.872 142.3 149.61 143.25 153.225 144.998C158.311 147.483 162.386 151.255 165.726 155.732C168.79 159.811 171.333 164.258 173.385 168.95C174.059 170.514 174.151 171.68 172.926 173.121C170.628 175.789 168.636 178.733 166.002 182.229C164.899 174.838 159.598 170.514 156.412 164.902C155.707 163.675 155.155 162.265 154.88 160.884C153.348 153.463 149.303 147.943 142.624 144.354C142.257 144.14 141.797 144.017 141.889 143.128V143.158Z" fill="#333333"/>
<path d="M78.925 80.2582L71.8475 87.7718L77.2093 95.3468L74.8807 97.831L50.8906 63.3294L54.1996 59.8026L89.0971 82.7423L86.6153 85.3797L78.925 80.2582ZM76.2288 78.4181L55.6703 64.7708L69.9785 85.0424L76.2288 78.4181Z" fill="white"/>
<path d="M69.6719 45.6338L76.6269 40.727C81.6516 37.1695 85.7878 38.2122 89.5564 43.7018L91.4254 46.4005C95.1939 51.8901 94.7343 56.153 89.7402 59.7105L85.6959 62.5626L95.9905 77.4979L93.0798 79.5527L69.6719 45.6338ZM87.81 56.9503C90.8432 54.8036 91.2415 52.4421 88.6066 48.6086L86.4925 45.5418C83.8882 41.7697 81.5291 41.279 78.4652 43.4257L74.4209 46.2779L83.7657 59.8025L87.81 56.9503Z" fill="white"/>
<path d="M107.94 58.3616L98.9624 37.9674C96.3275 31.9871 97.8288 27.4482 103.129 25.0868C108.43 22.756 112.78 24.6881 115.415 30.6684L124.393 51.0626C127.027 57.0429 125.526 61.5818 120.226 63.9432C114.925 66.274 110.574 64.3419 107.94 58.3616ZM121.267 52.7494L112.106 31.9258C110.329 27.8776 107.694 26.7122 104.477 28.1229C101.291 29.5337 100.341 32.2631 102.118 36.3113L111.279 57.1349C113.056 61.1831 115.66 62.2871 118.878 60.8764C122.095 59.4657 123.044 56.7975 121.267 52.7494Z" fill="white"/>
<path d="M126.078 17.1129L131.317 16.1315L144.583 48.7316L144.522 13.678L149.761 12.6967L157.727 53.1785L154.296 53.8225L147.341 18.5542L147.279 55.1412L144.216 55.6932L130.214 21.7437L137.169 57.012L134.013 57.5947L126.047 17.1129H126.078Z" fill="white"/>
<path d="M178.194 44.6527L167.899 44.162L166 53.1785L162.599 53.0251L171.606 12.298L176.447 12.5126L183.341 53.9758L179.726 53.7918L178.255 44.6221L178.194 44.6527ZM177.704 41.4019L173.751 16.8675L168.604 40.9726L177.704 41.4019Z" fill="white"/>
<path d="M197.833 18.7074L190.603 17.1434L191.215 13.9232L209.262 17.8181L208.649 21.0382L201.357 19.4741L194.249 56.4598L190.756 55.6931L197.864 18.7074H197.833Z" fill="white"/>
<path d="M238.859 29.2574L223.447 67.0098L220.353 65.6604L232.731 35.3603L209.844 61.0602L206.32 59.5268L221.732 21.7744L224.765 23.0931L212.479 53.2398L235.366 27.724L238.889 29.2574H238.859Z" fill="white"/>
<path d="M248.02 57.3802L240.054 61.1523L232.517 72.4995L229.545 70.4141L252.003 36.6179L254.975 38.7033L243.271 56.3375L264.841 45.6037L267.966 47.7811L252.187 55.4788L245.6 81.6386L242.444 79.4305L248.051 57.3802H248.02Z" fill="white"/>
<path d="M265.178 88.7533L257.916 81.1783L250.379 86.2386L247.989 83.7238L282.243 61.1215L285.644 64.679L262.573 98.9965L260.03 96.3283L265.178 88.7533ZM267.016 86.0852L280.742 65.9057L260.612 79.3996L267.016 86.0852Z" fill="white"/>
<path d="M52.3316 223.355L44.1204 222.251L31.9262 227.281L30.8232 224.153L67.1301 209.156L68.2331 212.284L49.2984 220.105L71.8485 222.681L72.9821 225.962L56.5597 223.969L36.7059 241.051L35.5416 237.708L52.301 223.325L52.3316 223.355Z" fill="white"/>
<path d="M48.7164 245.007L66.5481 233.138C71.7873 229.642 76.138 230.317 78.8955 234.886C81.653 239.456 80.3355 243.903 75.0963 247.399L57.2646 259.267C52.0254 262.763 47.6747 262.089 44.9172 257.519C42.1597 252.95 43.4772 248.503 48.7164 245.037V245.007ZM55.3956 256.568L73.595 244.424C77.1185 242.062 77.9151 239.394 76.2606 236.634C74.6061 233.874 71.9712 233.445 68.4477 235.806L50.2483 247.951C46.6942 250.312 45.9895 252.95 47.644 255.71C49.2985 258.47 51.8722 258.93 55.4263 256.568H55.3956Z" fill="white"/>
<path d="M67.4976 278.619L66.2107 277.331C61.9826 273.099 62.289 268.314 67.1299 263.193L73.8091 256.139C78.6501 251.048 83.3071 250.619 87.5353 254.82L88.8221 256.108L91.9166 252.827L94.2145 255.127L91.12 258.409L92.4068 259.697C96.6656 263.96 96.3592 268.774 91.5183 273.865L84.8391 280.919C79.9982 286.01 75.3411 286.439 71.0823 282.176L69.7955 280.888L66.701 284.17L64.4031 281.87L67.4976 278.588V278.619ZM69.7342 276.257L86.6161 258.47L85.3293 257.182C82.5105 254.36 79.5999 254.759 76.2296 258.347L69.2746 265.708C65.935 269.234 65.6593 272.179 68.478 275L69.7648 276.288L69.7342 276.257ZM73.3189 279.846C76.1377 282.667 79.0484 282.33 82.388 278.803L89.343 271.443C92.7132 267.885 93.0196 264.849 90.2008 262.027L88.914 260.739L72.0321 278.527L73.3189 279.815V279.846Z" fill="white"/>
<path d="M105.366 264.696L117.775 272.424L116.089 275.154L106.438 269.143L98.8705 281.41L106.806 286.347L105.121 289.077L97.1854 284.139L88.7291 297.817L98.3803 303.828L96.6645 306.619L84.2559 298.891L105.366 264.696Z" fill="white"/>
<path d="M146.576 282.391L134.995 320.726L132.053 319.929L141.368 289.138L122.065 317.169L118.726 316.249L130.307 277.914L133.187 278.711L123.934 309.318L143.237 281.471L146.576 282.391Z" fill="white"/>
<path d="M161.589 284.139L169.586 283.955C175.407 283.833 177.736 286.531 177.552 292.757V294.413C177.399 298.768 175.989 301.344 173.048 302.479V302.601C176.449 303.552 177.766 306.282 177.644 310.882L177.552 314.225C177.399 320.328 174.702 323.456 169.004 323.578L160.517 323.762L161.589 284.139ZM169.095 320.327C172.65 320.235 174.181 318.457 174.304 314.225L174.396 310.82C174.518 306.128 172.925 304.411 168.575 304.503L164.346 304.595L163.917 320.45L169.095 320.327ZM168.483 301.344C172.251 301.252 174.09 299.535 174.212 295.149L174.273 293.125C174.396 288.831 173.048 287.053 169.402 287.114L164.806 287.206L164.438 301.405L168.513 301.313L168.483 301.344Z" fill="white"/>
<path d="M182.332 283.526L185.549 282.759L188.429 298.584L192.902 297.511C198.479 296.161 201.573 298.523 202.707 304.748L203.473 308.98C204.606 315.267 202.615 318.917 197.039 320.236L189.318 322.076L182.332 283.495V283.526ZM196.456 317.107C199.857 316.279 201.052 314.317 200.286 309.962L199.459 305.331C198.693 301.037 196.885 299.749 193.485 300.547L189.011 301.62L192.014 318.15L196.487 317.077L196.456 317.107ZM202.278 278.742L205.495 277.975L212.481 316.555L209.263 317.322L202.278 278.742Z" fill="white"/>
<path d="M210.121 275.92L225.532 268.56L240.3 304.38L237.267 305.821L223.694 272.884L214.349 277.362L227.922 310.299L224.889 311.74L210.121 275.92Z" fill="white"/>
<path d="M230.22 265.647L242.69 256.784L244.344 259.36L234.632 266.26L242.077 277.822L250.043 272.148L251.698 274.724L243.701 280.398L252.004 293.309L261.716 286.409L263.402 289.046L250.901 297.909L230.128 265.647H230.22Z" fill="white"/>
<path d="M257.519 242.4L283.684 270.124L281.264 272.547L269.223 259.789C269.591 262.334 268.702 264.849 266.68 266.873C263.402 270.154 259.756 270.277 256.079 266.382L245.11 254.759L247.531 252.336L258.162 263.592C260.43 266.014 262.85 266.382 265.087 264.113C267.569 261.629 267.691 258.133 264.627 254.882L255.099 244.792L257.519 242.369V242.4Z" fill="white"/>
<path d="M280.131 242.339L283.532 250.006L293.949 257.366L291.988 260.187L260.981 238.26L262.942 235.438L279.089 246.877L269.407 226.085L271.46 223.14L278.415 238.352L302.528 244.976L300.444 247.982L280.131 242.369V242.339Z" fill="white"/>
<path d="M305.591 219.736L301.516 228.753L308.563 233.568L307.215 236.542L275.534 214.461L277.434 210.229L315.364 218.387L313.924 221.576L305.529 219.736H305.591ZM302.619 219.062L280.222 214.124L299.034 227.035L302.619 219.062Z" fill="white"/>
</svg>
