<svg width="179" height="177" viewBox="0 0 179 177" fill="none" xmlns="http://www.w3.org/2000/svg">
<path d="M95.0029 0C123.087 1.31496 149.538 15.2984 166.76 44.436C179.512 66.0206 182.092 89.337 174.818 113.423C168.762 133.484 156.891 149.456 139.332 160.874C113.988 177.375 86.7362 180.727 58.3474 170.48C33.5633 161.532 15.9725 144.469 6.16785 119.854C-0.865265 102.278 -1.85855 84.1895 3.05982 65.7961C8.5229 45.3661 19.9457 29.0734 37.0238 16.8058C52.6921 5.56452 70.2989 0.0320722 95.0029 0Z" fill="white"/>
<path d="M84.8141 173.719C56.7618 172.532 31.481 158.853 14.2907 131.207C7.56203 120.399 3.95736 108.372 2.70774 95.6873C2.57957 94.3403 2.85192 93.9394 4.16563 94.645C6.16822 95.7354 8.2349 95.4628 10.2215 94.5969C11.8716 93.8752 13.4737 93.8111 15.1078 94.5648C17.3026 95.5751 19.4815 95.5751 21.6763 94.5648C23.3104 93.8111 24.9445 93.8592 26.5626 94.6289C28.1487 95.3826 29.8469 95.6873 31.465 95.078C33.003 94.4846 33.1472 95.1742 33.3234 96.3929C34.2366 102.904 36.3033 109.061 39.5074 114.802C52.8847 138.808 81.3055 150.258 107.243 141.278C128.471 133.917 141.431 118.795 145.517 96.425C145.901 94.3563 145.853 94.3403 147.856 95.0459C149.618 95.6553 151.316 95.3826 152.934 94.6289C154.584 93.8592 156.171 93.8432 157.805 94.6289C159.999 95.6713 162.194 95.5751 164.373 94.5648C165.895 93.8592 167.401 93.8432 168.923 94.5167C170.974 95.4307 173.024 95.6713 175.171 94.8053C176.597 94.2441 176.068 95.4307 176.004 95.9599C175.395 100.931 174.642 105.87 173.233 110.681C166.216 134.751 151.46 152.471 129.368 164.081C116.775 170.704 103.27 173.703 84.8301 173.719H84.8141Z" fill="#57A8B4"/>
<path d="M90.5013 2.3092C114.356 2.79029 135.792 11.6743 153.078 29.9073C165.879 43.4097 173.329 59.526 175.62 78.0316C175.748 79.0419 175.588 79.3947 174.562 79.8918C172.159 81.0624 169.964 81.0624 167.577 79.8918C165.831 79.0419 163.94 79.2023 162.194 80.1324C160.352 81.0945 158.574 81.1266 156.699 80.1644C154.729 79.1381 152.694 79.106 150.659 80.0682C150.083 80.3408 149.49 80.5974 148.881 80.7738C146.686 81.4152 145.661 80.7417 145.244 78.5448C141.944 61.2258 132.636 48.1243 117.384 39.3846C101.411 30.2441 84.5737 29.1536 67.7519 36.2416C49.4401 43.9549 37.8411 57.8101 33.7398 77.5345C33.147 80.3569 31.1284 81.5756 28.3088 80.7097C27.8602 80.5653 27.4276 80.421 27.0111 80.2125C25.0566 79.2504 23.086 79.2504 21.1315 80.2125C19.209 81.1426 17.3666 81.1266 15.4601 80.1484C13.3133 79.0419 11.1666 79.5069 9.08387 80.421C8.0265 80.87 6.96913 81.0464 5.84768 80.8059C2.96394 80.1965 2.73965 79.9239 3.17221 77.0213C6.26422 55.6773 15.7485 37.749 32.1057 23.6693C48.5109 9.50941 67.7038 2.61389 90.5013 2.3092Z" fill="#57A8B4"/>
<path d="M34.3003 88.1345C34.2683 58.163 59.1004 33.4995 89.3797 33.4514C119.611 33.4033 144.411 58.131 144.427 88.3429C144.427 117.849 119.467 142.625 89.7161 142.641C59.2446 142.641 34.3324 118.138 34.3003 88.1345Z" fill="#5A2B1C"/>
<path d="M146.125 87.461C146.125 87.2846 146.125 87.1082 146.125 86.9318C146.061 85.6489 145.549 84.1575 146.045 83.1633C146.59 82.0889 148.272 83.0991 149.394 82.6341C149.922 82.4096 150.515 82.3134 151.028 82.0568C152.646 81.2069 154.264 81.1909 155.882 81.9766C158.381 83.1954 160.8 83.051 163.236 81.8163C164.485 81.1748 165.831 81.1427 167.097 81.7682C169.58 83.019 172.063 83.2916 174.61 81.9445C175.604 81.4154 176.132 81.72 176.132 82.8907C176.148 85.681 176.18 88.4712 176.228 91.2615C176.228 91.9511 175.876 92.2558 175.299 92.5604C173.345 93.5707 171.406 93.5547 169.436 92.6085C167.417 91.6303 165.382 91.6303 163.412 92.7208C161.73 93.6509 160.047 93.5547 158.397 92.7529C156.186 91.6785 154.056 91.6945 151.861 92.7529C151.3 93.0255 150.659 93.2179 150.034 93.2981C147.247 93.6028 146.013 92.4642 146.077 89.7221C146.093 88.9684 146.077 88.2147 146.077 87.461H146.125Z" fill="#5A2B1C"/>
<path d="M32.6663 87.493C32.6663 88.4872 32.6502 89.4654 32.6663 90.4596C32.7303 92.6245 32.3298 93.0896 30.167 93.298C29.0936 93.4103 28.0843 93.1858 27.1231 92.7207C25.1205 91.7104 23.1019 91.6944 21.0833 92.6245C19.2249 93.4905 17.4466 93.5065 15.5721 92.5924C13.7297 91.6944 11.7111 91.5661 9.85272 92.5604C7.44961 93.8433 5.23874 92.9933 2.9638 92.2396C2.35501 92.0312 2.40307 91.5501 2.41909 91.1171C2.43511 88.391 2.49919 85.6648 2.51522 82.9227C2.51522 81.8643 2.97982 81.736 3.8129 82.1369C6.13591 83.2594 8.42687 83.0349 10.7018 81.9765C12.1757 81.287 13.6336 81.3672 15.0755 82.0728C17.3024 83.1632 19.5293 83.2113 21.7722 82.1209C23.214 81.4153 24.704 81.4313 26.1618 82.0567C28.0363 82.8585 29.9588 83.1793 31.9293 82.634C32.8745 82.3774 32.8745 82.8425 32.8265 83.516C32.7304 84.847 32.6663 86.178 32.6022 87.525C32.6342 87.525 32.6663 87.525 32.6823 87.525L32.6663 87.493Z" fill="#5A2B1C"/>
<path d="M89.5399 140.492C60.0778 140.412 36.3671 116.791 36.4632 87.6051C36.5593 58.8524 60.5424 35.5199 89.8924 35.6161C118.666 35.7123 142.376 59.558 142.28 88.3107C142.184 116.871 118.249 140.556 89.5399 140.476V140.492Z" fill="white"/>
<path d="M38.1135 87.7976C38.1936 61.1617 60.1581 37.332 89.1717 37.3C117.416 37.2679 140.55 59.9429 140.63 87.7816C140.71 115.845 117.657 138.808 89.3799 138.856C61.2475 138.905 38.1936 115.957 38.1135 87.7976Z" fill="#5A2B1C"/>
<path d="M114.132 90.5399C113.363 99.8568 110.447 108.228 103.382 114.738C101.732 116.262 99.7772 117.272 97.7105 118.09C91.927 120.415 85.1662 116.582 83.5321 112.589C82.4107 109.847 80.6324 108.564 78.5657 106.977C71.6928 101.669 66.9667 94.8055 64.9 86.3063C63.9868 82.5699 63.7785 78.7213 67.1269 75.8027C72.9104 70.7674 79.1424 70.8155 84.958 75.8989C88.2102 78.7373 90.6934 82.137 92.3275 86.13C92.7921 87.2685 93.1286 87.3968 94.0417 86.4827C96.6531 83.8368 99.681 81.704 103.366 80.9824C110.511 79.5872 113.859 82.9227 114.1 88.7919C114.116 89.3692 114.1 89.9465 114.1 90.5399H114.132Z" fill="white"/>
<path d="M96.9254 73.6698C95.7079 74.5198 95.019 75.8347 94.1378 76.9733C93.3208 78.0477 92.9042 77.5345 92.6159 76.6846C92.2474 75.6102 92.3916 74.4877 92.6159 73.4133C93.5931 68.9552 96.2846 65.8603 100.322 63.8718C100.995 63.535 101.7 63.2464 102.389 62.9577C105.913 61.4664 109.518 60.0873 111.248 55.966C112.097 57.2008 112.001 58.2752 112.129 59.2694C113.315 67.961 109.358 74.7282 101.187 77.9034C98.4795 78.9618 95.7399 79.8758 93.0004 82.0086C93.9936 78.8335 95.6918 76.6205 97.2138 74.3113C97.6304 73.3652 98.2712 72.6115 99.0402 71.954C98.3032 72.5152 97.8867 73.4453 96.8934 73.6698H96.9254Z" fill="white"/>
<path d="M91.5906 115.877C96.1566 113.824 98.3834 110.553 99.3287 106.271C99.6491 104.828 100.466 103.593 101.443 102.503C103.11 100.643 104.199 98.5099 104.599 96.0243C104.808 94.6773 105.593 93.5547 106.314 92.4322C107.275 90.9248 107.836 89.3052 107.74 87.4931C107.675 86.4508 107.179 85.8253 106.105 85.8735C105.032 85.9216 105.016 86.7554 105.08 87.5412C105.144 88.3109 105.208 89.1448 104.792 89.7542C102.068 93.7311 101.812 98.9429 98.3033 102.551C97.0697 103.818 96.8134 105.678 96.3007 107.33C95.4516 110.008 93.8816 112.108 91.2542 113.215C88.0821 114.562 85.4066 112.862 85.0702 109.414C84.7658 106.271 85.9033 103.433 87.1209 100.675C89.3157 95.7196 92.4077 91.3899 96.493 87.7978C99.0243 85.5848 101.812 83.8048 105.224 83.3718C109.101 82.8907 111.408 84.3661 111.488 88.0864C111.713 98.5099 108.252 107.49 99.8574 114.081C97.6785 115.797 95.0191 116.534 91.6067 115.845L91.5906 115.877Z" fill="#5A2B1C"/>
<path d="M67.0309 82.6982C67.0309 80.5012 67.4154 78.3524 69.5782 77.3581C71.709 76.3799 73.5193 77.6628 75.1214 78.9618C76.4031 79.9881 77.4284 81.287 77.8609 82.9227C78.7261 86.178 80.3762 89.0164 82.4269 91.6623C83.9008 93.5546 84.3173 95.8798 85.0703 98.0768C85.2145 98.4937 85.0222 98.8625 84.862 99.2474C84.045 101.236 83.1638 103.208 82.8114 105.341C82.6511 106.271 82.2346 106.383 81.5457 105.902C80.4563 105.133 79.3188 104.411 78.3416 103.513C73.1508 98.7182 69.402 93.0254 67.4795 86.162C67.1591 85.0394 67.0469 83.8848 67.0149 82.7142L67.0309 82.6982Z" fill="#5A2B1C"/>
<path d="M74.1923 74.8566C76.275 74.4076 78.2295 74.9047 80.1199 75.8187C82.7794 77.1177 84.9101 79.0901 86.6564 81.4314C88.2585 83.5642 89.5882 85.8894 90.6616 88.3429C91.014 89.1608 91.0621 89.7701 90.4213 90.5238C89.2197 91.919 88.1784 93.4584 86.8006 95.2865C86.2238 91.4219 83.4522 89.1608 81.7861 86.2262C81.4176 85.5847 81.1292 84.8471 80.9851 84.1254C80.184 80.2447 78.0693 77.3582 74.5767 75.482C74.3845 75.3697 74.1442 75.3056 74.1923 74.8405V74.8566Z" fill="#5A2B1C"/>
<path d="M41.2693 41.9665L37.5685 45.8953L40.3722 49.8562L39.1546 51.1552L26.6104 33.1146L28.3406 31.2704L46.5882 43.2654L45.2905 44.6445L41.2693 41.9665ZM39.8595 41.0043L29.1096 33.8683L36.5913 44.4681L39.8595 41.0043Z" fill="#EDE9D1"/>
<path d="M36.4314 23.8617L40.0681 21.296C42.6955 19.4358 44.8583 19.981 46.8289 22.8515L47.8061 24.2626C49.7767 27.1331 49.5364 29.3621 46.925 31.2223L44.8102 32.7137L50.1932 40.5232L48.6713 41.5976L36.4314 23.8617ZM45.9157 29.7791C47.5017 28.6565 47.71 27.4217 46.3322 25.4172L45.2268 23.8136C43.865 21.8412 42.6314 21.5846 41.0294 22.7071L38.9146 24.1985L43.8009 31.2704L45.9157 29.7791Z" fill="#EDE9D1"/>
<path d="M56.4412 30.5168L51.7471 19.8528C50.3693 16.7258 51.1543 14.3525 53.9259 13.1177C56.6975 11.8989 58.9724 12.9092 60.3502 16.0363L65.0443 26.7003C66.4221 29.8273 65.6371 32.2006 62.8655 33.4354C60.0939 34.6542 57.819 33.6439 56.4412 30.5168ZM63.4102 27.5822L58.62 16.6937C57.6908 14.577 56.313 13.9676 54.6308 14.7053C52.9647 15.4429 52.468 16.8701 53.3972 18.9869L58.1874 29.8754C59.1166 31.9922 60.4784 32.5695 62.1606 31.8318C63.8428 31.0941 64.3394 29.699 63.4102 27.5822Z" fill="#EDE9D1"/>
<path d="M65.9254 8.94836L68.665 8.4352L75.602 25.4816L75.5699 7.15232L78.3095 6.63916L82.4749 27.8068L80.6806 28.1436L77.0438 9.70205L77.0118 28.8331L75.4097 29.1218L68.0882 11.3698L71.725 29.8113L70.0748 30.116L65.9094 8.94836H65.9254Z" fill="#EDE9D1"/>
<path d="M93.1765 23.3487L87.7936 23.0921L86.8003 27.8067L85.022 27.7266L89.7321 6.43063L92.2634 6.54289L95.868 28.2237L93.9776 28.1275L93.2086 23.3327L93.1765 23.3487ZM92.9202 21.6489L90.8535 8.82001L88.162 21.4244L92.9202 21.6489Z" fill="#EDE9D1"/>
<path d="M103.446 9.78209L99.665 8.96425L99.9855 7.28046L109.422 9.31704L109.101 11.0008L105.288 10.183L101.572 29.5225L99.7451 29.1216L103.462 9.78209H103.446Z" fill="#EDE9D1"/>
<path d="M124.898 15.2986L116.839 35.0391L115.221 34.3335L121.694 18.4898L109.726 31.9281L107.884 31.1263L115.942 11.3858L117.528 12.0754L111.104 27.8389L123.071 14.4968L124.914 15.2986H124.898Z" fill="#EDE9D1"/>
<path d="M129.688 30.0037L125.522 31.9761L121.581 37.9095L120.027 36.819L131.771 19.1473L133.325 20.2377L127.205 29.4585L138.483 23.8459L140.117 24.9844L131.867 29.0095L128.422 42.6883L126.772 41.5337L129.704 30.0037H129.688Z" fill="#EDE9D1"/>
<path d="M138.66 46.4085L134.863 42.4476L130.921 45.0936L129.672 43.7786L147.583 31.96L149.361 33.8202L137.298 51.7646L135.968 50.3694L138.66 46.4085ZM139.621 45.0134L146.798 34.4617L136.272 41.5175L139.621 45.0134Z" fill="#EDE9D1"/>
<path d="M27.3635 116.791L23.0699 116.214L16.6937 118.844L16.1169 117.208L35.1015 109.366L35.6783 111.002L25.7775 115.091L37.5687 116.438L38.1615 118.154L29.5744 117.112L19.1929 126.044L18.5841 124.296L27.3475 116.775L27.3635 116.791Z" fill="#EDE9D1"/>
<path d="M25.4729 128.112L34.797 121.906C37.5366 120.078 39.8115 120.431 41.2534 122.82C42.6953 125.21 42.0064 127.535 39.2668 129.363L29.9427 135.569C27.2032 137.397 24.9282 137.044 23.4864 134.655C22.0445 132.266 22.7334 129.94 25.4729 128.128V128.112ZM28.9655 134.158L38.4818 127.808C40.3242 126.573 40.7407 125.178 39.8756 123.734C39.0105 122.291 37.6327 122.067 35.7903 123.301L26.274 129.652C24.4156 130.887 24.0471 132.266 24.9122 133.709C25.7773 135.152 27.1231 135.393 28.9815 134.158H28.9655Z" fill="#EDE9D1"/>
<path d="M35.2937 145.688L34.6208 145.014C32.41 142.801 32.5702 140.3 35.1014 137.622L38.594 133.933C41.1252 131.271 43.5604 131.047 45.7713 133.244L46.4441 133.917L48.0622 132.202L49.2638 133.404L47.6457 135.12L48.3186 135.794C50.5454 138.023 50.3852 140.54 47.854 143.202L44.3614 146.891C41.8302 149.553 39.395 149.777 37.1681 147.548L36.4952 146.875L34.8772 148.59L33.6756 147.388L35.2937 145.672V145.688ZM36.4632 144.453L45.2906 135.152L44.6178 134.479C43.1439 133.003 41.6219 133.212 39.8596 135.088L36.2229 138.937C34.4766 140.781 34.3324 142.32 35.8064 143.796L36.4792 144.469L36.4632 144.453ZM38.3376 146.329C39.8115 147.805 41.3335 147.628 43.0798 145.784L46.7165 141.935C48.4788 140.075 48.639 138.488 47.1651 137.012L46.4922 136.339L37.6648 145.64L38.3376 146.313V146.329Z" fill="#EDE9D1"/>
<path d="M55.0954 138.407L61.5838 142.449L60.7027 143.876L55.6562 140.733L51.699 147.147L55.8484 149.729L54.9673 151.156L50.8179 148.574L46.3962 155.726L51.4427 158.87L50.5455 160.329L44.0571 156.288L55.0954 138.407Z" fill="#EDE9D1"/>
<path d="M76.6432 147.66L70.5873 167.705L69.0493 167.289L73.9197 151.188L63.8266 165.845L62.0803 165.364L68.1362 145.319L69.6421 145.736L64.8039 161.74L74.8969 147.179L76.6432 147.66Z" fill="#EDE9D1"/>
<path d="M84.4933 148.574L88.6748 148.478C91.7187 148.414 92.9363 149.825 92.8402 153.08V153.946C92.7601 156.224 92.0231 157.571 90.4851 158.164V158.228C92.2634 158.725 92.9523 160.152 92.8882 162.558L92.8402 164.306C92.7601 167.497 91.3502 169.133 88.3704 169.197L83.9326 169.293L84.4933 148.574ZM88.4184 167.497C90.2768 167.449 91.0779 166.519 91.142 164.306L91.19 162.526C91.2541 160.072 90.421 159.174 88.1461 159.222L85.9352 159.27L85.7109 167.561L88.4184 167.497ZM88.098 157.571C90.0686 157.522 91.0298 156.624 91.0939 154.331L91.1259 153.273C91.19 151.028 90.4851 150.098 88.5786 150.13L86.1755 150.178L85.9833 157.603L88.114 157.555L88.098 157.571Z" fill="#EDE9D1"/>
<path d="M95.3394 148.254L97.0215 147.853L98.5275 156.127L100.867 155.566C103.782 154.861 105.4 156.095 105.993 159.351L106.394 161.564C106.986 164.851 105.945 166.759 103.029 167.449L98.9921 168.411L95.3394 148.238V148.254ZM102.725 165.813C104.503 165.38 105.128 164.354 104.728 162.077L104.295 159.655C103.894 157.41 102.949 156.737 101.171 157.154L98.8319 157.715L100.402 166.358L102.741 165.797L102.725 165.813ZM105.769 145.752L107.451 145.351L111.104 165.525L109.422 165.925L105.769 145.752Z" fill="#EDE9D1"/>
<path d="M109.87 144.277L117.929 140.428L125.651 159.158L124.065 159.912L116.968 142.689L112.081 145.03L119.178 162.253L117.592 163.007L109.87 144.277Z" fill="#EDE9D1"/>
<path d="M120.38 138.905L126.9 134.27L127.765 135.617L122.687 139.225L126.58 145.271L130.745 142.304L131.61 143.651L127.429 146.618L131.771 153.369L136.849 149.761L137.73 151.14L131.194 155.775L120.332 138.905H120.38Z" fill="#EDE9D1"/>
<path d="M134.654 126.749L148.336 141.246L147.071 142.513L140.774 135.842C140.967 137.173 140.502 138.488 139.445 139.546C137.73 141.262 135.824 141.326 133.901 139.289L128.166 133.212L129.432 131.945L134.991 137.83C136.176 139.097 137.442 139.289 138.612 138.103C139.909 136.804 139.973 134.976 138.371 133.276L133.389 128L134.654 126.733V126.749Z" fill="#EDE9D1"/>
<path d="M146.478 126.717L148.256 130.726L153.703 134.575L152.678 136.05L136.465 124.584L137.49 123.109L145.933 129.09L140.871 118.218L141.944 116.679L145.581 124.632L158.189 128.096L157.1 129.668L146.478 126.733V126.717Z" fill="#EDE9D1"/>
<path d="M159.791 114.899L157.66 119.613L161.345 122.131L160.64 123.686L144.075 112.14L145.068 109.927L164.902 114.193L164.149 115.861L159.759 114.899H159.791ZM158.237 114.546L146.526 111.964L156.363 118.715L158.237 114.546Z" fill="#EDE9D1"/>
</svg>
