<svg width="552" height="544" viewBox="0 0 552 544" fill="none" xmlns="http://www.w3.org/2000/svg">
<path d="M292.774 0C379.323 4.05236 460.835 47.1457 513.91 136.94C553.21 203.458 561.159 275.313 538.744 349.541C520.082 411.364 483.497 460.585 429.386 495.772C351.28 546.624 267.298 556.952 179.811 525.374C103.433 497.798 49.2232 445.216 19.0077 369.358C-2.66652 315.194 -5.72757 259.45 9.42956 202.766C26.2653 139.806 61.4674 89.5967 114.098 51.7911C162.383 17.1484 216.643 0.098838 292.774 0Z" fill="white"/>
<path d="M261.375 535.356C174.925 531.699 97.016 489.545 44.0401 404.346C23.3039 371.038 12.1953 333.974 8.3443 294.883C7.94932 290.732 8.78864 289.497 12.8371 291.671C19.0086 295.031 25.3776 294.191 31.4996 291.523C36.5849 289.299 41.5221 289.101 46.558 291.424C53.322 294.537 60.0365 294.537 66.8005 291.424C71.8364 289.101 76.8723 289.249 81.8588 291.622C86.7466 293.944 91.98 294.883 96.9666 293.005C101.706 291.177 102.151 293.302 102.694 297.058C105.508 317.122 111.877 336.099 121.751 353.791C162.977 427.771 250.562 463.056 330.495 435.381C395.913 412.698 435.854 366.096 448.444 297.156C449.629 290.781 449.481 290.732 455.652 292.906C461.083 294.784 466.317 293.944 471.303 291.622C476.389 289.249 481.276 289.2 486.312 291.622C493.076 294.834 499.84 294.537 506.555 291.424C511.245 289.249 515.886 289.2 520.576 291.276C526.896 294.093 533.215 294.834 539.831 292.165C544.225 290.435 542.596 294.093 542.399 295.723C540.522 311.043 538.202 326.264 533.857 341.09C512.232 415.268 466.761 469.876 398.677 505.655C359.871 526.065 318.251 535.307 261.424 535.356H261.375Z" fill="#57A8B4"/>
<path d="M278.902 7.11633C352.416 8.5989 418.476 35.977 471.748 92.1665C511.196 133.777 534.154 183.443 541.214 240.473C541.609 243.586 541.115 244.674 537.955 246.206C530.549 249.813 523.786 249.813 516.429 246.206C511.048 243.586 505.222 244.081 499.84 246.947C494.162 249.912 488.682 250.011 482.906 247.046C476.833 243.883 470.563 243.784 464.293 246.749C462.515 247.589 460.688 248.38 458.812 248.924C452.048 250.9 448.889 248.825 447.605 242.054C437.434 188.682 408.749 148.306 361.747 121.373C312.524 93.2043 260.634 89.8438 208.794 111.687C152.362 135.458 116.617 178.156 103.977 238.941C102.151 247.639 95.9299 251.395 87.2404 248.726C85.858 248.281 84.525 247.836 83.2413 247.194C77.218 244.229 71.1452 244.229 65.1219 247.194C59.1973 250.06 53.5195 250.011 47.6443 246.996C41.0285 243.586 34.4127 245.019 27.9943 247.836C24.7358 249.22 21.4773 249.764 18.0212 249.022C9.13432 247.145 8.44312 246.304 9.77616 237.36C19.3049 171.583 48.533 116.332 98.9416 72.9425C149.498 29.3055 208.646 8.05529 278.902 7.11633Z" fill="#57A8B4"/>
<path d="M105.705 271.608C105.606 179.243 182.132 103.237 275.445 103.089C368.609 102.94 445.037 179.145 445.086 272.25C445.086 363.181 368.165 439.533 276.482 439.583C182.576 439.583 105.803 364.07 105.705 271.608Z" fill="#5A2B1C"/>
<path d="M450.321 269.532C450.321 268.988 450.321 268.444 450.321 267.901C450.123 263.947 448.544 259.351 450.074 256.287C451.753 252.976 456.937 256.09 460.393 254.657C462.022 253.965 463.849 253.668 465.429 252.877C470.415 250.258 475.402 250.209 480.388 252.63C488.09 256.386 495.545 255.941 503.05 252.136C506.901 250.159 511.048 250.061 514.949 251.988C522.601 255.843 530.254 256.683 538.104 252.532C541.165 250.901 542.794 251.84 542.794 255.447C542.844 264.046 542.942 272.645 543.09 281.244C543.09 283.369 542.004 284.308 540.227 285.247C534.204 288.36 528.23 288.311 522.157 285.395C515.936 282.381 509.666 282.381 503.593 285.741C498.409 288.607 493.225 288.311 488.14 285.84C481.326 282.529 474.76 282.578 467.996 285.84C466.268 286.68 464.293 287.273 462.368 287.52C453.777 288.459 449.975 284.95 450.173 276.5C450.222 274.177 450.173 271.854 450.173 269.532H450.321Z" fill="#5A2B1C"/>
<path d="M100.669 269.63C100.669 272.694 100.62 275.709 100.669 278.773C100.867 285.444 99.6322 286.878 92.9671 287.52C89.6591 287.866 86.5487 287.174 83.5864 285.741C77.415 282.627 71.1941 282.578 64.9733 285.444C59.2462 288.113 53.7659 288.162 47.9894 285.346C42.3116 282.578 36.0908 282.183 30.3637 285.247C22.9579 289.2 16.1446 286.581 9.13383 284.258C7.2577 283.616 7.40582 282.133 7.45519 280.799C7.50456 272.398 7.70205 263.997 7.75142 255.546C7.75142 252.284 9.1832 251.889 11.7505 253.124C18.9094 256.584 25.9696 255.892 32.9804 252.63C37.5226 250.505 42.0154 250.752 46.4589 252.927C53.3215 256.287 60.1842 256.435 67.0963 253.075C71.5397 250.9 76.1313 250.95 80.6241 252.877C86.4006 255.348 92.3252 256.337 98.3979 254.656C101.311 253.866 101.311 255.299 101.163 257.374C100.867 261.476 100.669 265.578 100.472 269.729C100.57 269.729 100.669 269.729 100.718 269.729L100.669 269.63Z" fill="#5A2B1C"/>
<path d="M275.939 432.96C185.144 432.713 112.074 359.919 112.37 269.976C112.666 181.368 186.576 109.463 277.025 109.76C365.697 110.056 438.767 183.542 438.47 272.15C438.174 360.166 364.413 433.158 275.939 432.91V432.96Z" fill="white"/>
<path d="M117.455 270.569C117.702 188.484 185.391 115.048 274.803 114.949C361.845 114.85 433.138 184.728 433.385 270.52C433.632 357.003 362.586 427.771 275.445 427.919C188.748 428.068 117.702 357.349 117.455 270.569Z" fill="#5A2B1C"/>
<path d="M351.724 279.02C349.354 307.733 340.369 333.529 318.596 353.594C313.51 358.288 307.487 361.402 301.118 363.922C283.295 371.088 262.46 359.277 257.424 346.971C253.968 338.521 248.488 334.567 242.119 329.675C220.938 313.317 206.374 292.166 200.005 265.974C197.19 254.459 196.549 242.598 206.867 233.604C224.691 218.087 243.896 218.235 261.818 233.901C271.841 242.648 279.493 253.125 284.529 265.43C285.961 268.939 286.998 269.334 289.812 266.517C297.859 258.363 307.191 251.79 318.546 249.567C340.566 245.267 350.885 255.546 351.625 273.634C351.675 275.413 351.625 277.192 351.625 279.02H351.724Z" fill="white"/>
<path d="M298.7 227.031C294.947 229.65 292.824 233.702 290.109 237.211C287.591 240.522 286.307 238.941 285.419 236.322C284.283 233.011 284.727 229.551 285.419 226.24C288.43 212.502 296.725 202.964 309.166 196.836C311.24 195.798 313.412 194.909 315.535 194.019C326.397 189.423 337.506 185.173 342.838 172.472C345.455 176.278 345.158 179.589 345.553 182.653C349.207 209.438 337.012 230.293 311.832 240.078C303.489 243.339 295.046 246.156 286.603 252.729C289.664 242.944 294.898 236.124 299.588 229.008C300.872 226.092 302.847 223.769 305.217 221.743C302.945 223.473 301.662 226.339 298.601 227.031H298.7Z" fill="white"/>
<path d="M282.257 357.102C296.328 350.777 303.191 340.695 306.104 327.5C307.091 323.052 309.609 319.247 312.621 315.887C317.756 310.154 321.113 303.581 322.347 295.921C322.989 291.77 325.408 288.311 327.63 284.852C330.592 280.206 332.32 275.215 332.024 269.631C331.827 266.418 330.296 264.491 326.988 264.639C323.68 264.787 323.631 267.357 323.828 269.779C324.026 272.151 324.223 274.721 322.94 276.599C314.547 288.855 313.757 304.916 302.944 316.035C299.143 319.939 298.353 325.672 296.773 330.762C294.156 339.015 289.318 345.489 281.221 348.899C271.445 353.05 263.2 347.811 262.163 337.186C261.225 327.5 264.73 318.753 268.483 310.253C275.247 294.982 284.775 281.639 297.365 270.57C305.166 263.75 313.757 258.264 324.273 256.93C336.221 255.447 343.33 259.994 343.577 271.459C344.268 303.581 333.604 331.256 307.733 351.567C301.019 356.855 292.823 359.128 282.307 357.003L282.257 357.102Z" fill="#5A2B1C"/>
<path d="M206.571 254.854C206.571 248.084 207.756 241.461 214.421 238.397C220.987 235.383 226.566 239.336 231.504 243.339C235.453 246.502 238.613 250.505 239.946 255.546C242.612 265.578 247.698 274.325 254.017 282.479C258.559 288.311 259.843 295.476 262.163 302.247C262.608 303.532 262.015 304.668 261.522 305.854C259.004 311.982 256.288 318.061 255.202 324.634C254.708 327.5 253.425 327.846 251.302 326.363C247.944 323.991 244.439 321.767 241.427 319C225.431 304.224 213.878 286.68 207.953 265.528C206.966 262.069 206.62 258.511 206.521 254.903L206.571 254.854Z" fill="#5A2B1C"/>
<path d="M228.641 230.688C235.06 229.304 241.083 230.836 246.909 233.653C255.104 237.656 261.671 243.735 267.052 250.95C271.99 257.523 276.087 264.688 279.395 272.25C280.482 274.77 280.63 276.648 278.655 278.971C274.952 283.27 271.743 288.014 267.497 293.648C265.719 281.738 257.178 274.77 252.043 265.726C250.908 263.75 250.019 261.476 249.575 259.252C247.106 247.293 240.589 238.398 229.826 232.616C229.234 232.27 228.493 232.072 228.641 230.639V230.688Z" fill="#5A2B1C"/>
<path d="M127.181 129.33L115.777 141.437L124.417 153.644L120.664 157.647L82.0063 102.05L87.3385 96.3671L143.573 133.332L139.574 137.583L127.181 129.33ZM122.837 126.364L89.7083 104.373L112.765 137.039L122.837 126.364Z" fill="#EDE9D1"/>
<path d="M112.271 73.5353L123.479 65.6283C131.576 59.8957 138.241 61.5759 144.314 70.4219L147.325 74.7708C153.398 83.6168 152.658 90.486 144.61 96.2186L138.093 100.815L154.682 124.882L149.992 128.193L112.271 73.5353ZM141.5 91.7709C146.387 88.3116 147.029 84.5063 142.783 78.329L139.377 73.3871C135.18 67.3085 131.378 66.5178 126.441 69.9771L119.924 74.5731L134.982 96.3669L141.5 91.7709Z" fill="#EDE9D1"/>
<path d="M173.937 94.0449L159.471 61.1812C155.225 51.5445 157.644 44.2305 166.185 40.4252C174.727 36.6694 181.738 39.7828 185.983 49.4195L200.449 82.2831C204.695 91.9199 202.276 99.2339 193.735 103.039C185.194 106.795 178.183 103.682 173.937 94.0449ZM195.413 85.0012L180.651 51.4457C177.788 44.9224 173.542 43.0444 168.358 45.3177C163.223 47.591 161.693 51.9893 164.556 58.5126L179.318 92.0681C182.182 98.5914 186.378 100.371 191.562 98.0972C196.747 95.824 198.277 91.5245 195.413 85.0012Z" fill="#EDE9D1"/>
<path d="M203.164 27.5761L211.607 25.9946L232.985 78.5271L232.886 22.0411L241.328 20.4597L254.165 85.6928L248.636 86.7306L237.428 29.8987L237.329 88.8556L232.392 89.7452L209.829 35.0383L221.037 91.8702L215.951 92.8092L203.115 27.5761H203.164Z" fill="#EDE9D1"/>
<path d="M287.146 71.9543L270.557 71.1636L267.496 85.6928L262.016 85.4457L276.531 19.8173L284.332 20.1632L295.44 86.9777L289.614 86.6812L287.245 71.9049L287.146 71.9543ZM286.356 66.7159L279.987 27.1807L271.692 66.024L286.356 66.7159Z" fill="#EDE9D1"/>
<path d="M318.793 30.1456L307.142 27.6253L308.129 22.4363L337.209 28.7125L336.222 33.9015L324.471 31.3811L313.017 90.9804L307.388 89.745L318.843 30.1456H318.793Z" fill="#EDE9D1"/>
<path d="M384.903 47.1461L360.069 107.981L355.082 105.806L375.028 56.9805L338.147 98.3936L332.47 95.9227L357.304 35.0879L362.192 37.2129L342.393 85.7918L379.274 44.6752L384.952 47.1461H384.903Z" fill="#EDE9D1"/>
<path d="M399.664 92.4634L386.827 98.5419L374.682 116.827L369.893 113.466L406.082 59.0067L410.871 62.3672L392.011 90.7831L426.769 73.4865L431.805 76.9952L406.378 89.3994L395.763 131.554L390.678 127.996L399.713 92.4634H399.664Z" fill="#EDE9D1"/>
<path d="M427.312 143.019L415.611 130.812L403.466 138.966L399.615 134.914L454.812 98.4922L460.293 104.225L423.116 159.525L419.018 155.225L427.312 143.019ZM430.275 138.719L452.393 106.202L419.956 127.946L430.275 138.719Z" fill="#EDE9D1"/>
<path d="M84.3279 359.919L71.0963 358.14L51.4463 366.245L49.6689 361.204L108.174 337.038L109.952 342.079L79.4401 354.681L115.778 358.832L117.604 364.12L91.1412 360.907L59.1483 388.434L57.2722 383.047L84.2785 359.87L84.3279 359.919Z" fill="#EDE9D1"/>
<path d="M78.5011 394.808L107.236 375.683C115.678 370.049 122.689 371.137 127.132 378.5C131.576 385.863 129.453 393.029 121.01 398.663L92.2759 417.788C83.8333 423.422 76.8225 422.335 72.3791 414.971C67.9356 407.608 70.0586 400.442 78.5011 394.858V394.808ZM89.2642 413.439L118.591 393.869C124.269 390.064 125.552 385.765 122.886 381.317C120.22 376.869 115.974 376.177 110.297 379.983L80.9697 399.552C75.2426 403.358 74.1071 407.608 76.7731 412.055C79.4392 416.503 83.5864 417.244 89.3136 413.439H89.2642Z" fill="#EDE9D1"/>
<path d="M108.768 448.972L106.694 446.896C99.8806 440.076 100.374 432.367 108.175 424.114L118.938 412.747C126.739 404.544 134.243 403.852 141.057 410.622L143.13 412.698L148.117 407.41L151.82 411.117L146.833 416.404L148.907 418.48C155.769 425.349 155.276 433.108 147.475 441.312L136.712 452.678C128.911 460.882 121.407 461.573 114.544 454.704L112.47 452.629L107.484 457.916L103.781 454.21L108.768 448.922V448.972ZM112.372 445.166L139.575 416.503L137.502 414.428C132.96 409.881 128.269 410.524 122.838 416.306L111.631 428.166C106.25 433.849 105.805 438.594 110.347 443.14L112.421 445.216L112.372 445.166ZM118.148 450.948C122.69 455.495 127.381 454.951 132.762 449.268L143.97 437.408C149.4 431.675 149.894 426.782 145.352 422.236L143.278 420.16L116.075 448.823L118.148 450.899V450.948Z" fill="#EDE9D1"/>
<path d="M169.79 426.535L189.785 438.989L187.07 443.387L171.518 433.701L159.323 453.469L172.11 461.425L169.395 465.824L156.607 457.867L142.981 479.908L158.533 489.594L155.768 494.091L135.772 481.638L169.79 426.535Z" fill="#EDE9D1"/>
<path d="M236.195 455.05L217.532 516.824L212.793 515.539L227.802 465.923L196.697 511.092L191.316 509.609L209.978 447.835L214.619 449.12L199.709 498.44L230.813 453.568L236.195 455.05Z" fill="#EDE9D1"/>
<path d="M260.388 457.867L273.274 457.571C282.654 457.373 286.407 461.722 286.11 471.754V474.423C285.864 481.44 283.592 485.591 278.853 487.42V487.617C284.333 489.149 286.456 493.548 286.258 500.961L286.11 506.347C285.864 516.182 281.519 521.222 272.336 521.42L258.66 521.717L260.388 457.867ZM272.484 516.182C278.211 516.033 280.679 513.167 280.877 506.347L281.025 500.862C281.223 493.301 278.655 490.533 271.644 490.681L264.831 490.83L264.14 516.379L272.484 516.182ZM271.496 485.591C277.569 485.443 280.531 482.676 280.729 475.609L280.828 472.347C281.025 465.428 278.853 462.562 272.977 462.661L265.572 462.809L264.979 485.69L271.546 485.542L271.496 485.591Z" fill="#EDE9D1"/>
<path d="M293.812 456.879L298.997 455.644L303.637 481.144L310.846 479.414C319.831 477.24 324.818 481.045 326.645 491.077L327.879 497.897C329.706 508.028 326.497 513.909 317.511 516.034L305.069 518.999L293.812 456.83V456.879ZM316.573 510.993C322.053 509.659 323.979 506.496 322.744 499.478L321.411 492.016C320.177 485.097 317.264 483.022 311.784 484.307L304.576 486.036L309.414 512.673L316.622 510.943L316.573 510.993ZM325.954 449.17L331.138 447.934L342.394 510.103L337.21 511.339L325.954 449.17Z" fill="#EDE9D1"/>
<path d="M338.592 444.623L363.426 432.762L387.223 490.484L382.336 492.806L360.464 439.73L345.406 446.945L367.277 500.021L362.389 502.344L338.592 444.623Z" fill="#EDE9D1"/>
<path d="M370.98 428.068L391.074 413.786L393.74 417.937L378.089 429.056L390.087 447.687L402.923 438.545L405.589 442.696L392.703 451.838L406.083 472.644L421.734 461.524L424.449 465.774L404.306 480.057L370.832 428.068H370.98Z" fill="#EDE9D1"/>
<path d="M414.971 390.608L457.135 435.283L453.234 439.187L433.831 418.628C434.424 422.73 432.992 426.782 429.733 430.044C424.451 435.332 418.575 435.53 412.651 429.253L394.976 410.524L398.876 406.62L416.008 424.756C419.661 428.66 423.562 429.253 427.166 425.596C431.165 421.594 431.363 415.96 426.425 410.721L411.071 394.462L414.971 390.558V390.608Z" fill="#EDE9D1"/>
<path d="M451.408 390.509L456.888 402.864L473.674 414.724L470.515 419.271L420.55 383.936L423.71 379.39L449.729 397.823L434.128 364.317L437.435 359.573L448.643 384.085L487.498 394.759L484.141 399.602L451.408 390.558V390.509Z" fill="#EDE9D1"/>
<path d="M492.436 354.087L485.869 368.616L497.225 376.375L495.052 381.169L444.002 345.587L447.063 338.767L508.185 351.913L505.865 357.052L492.337 354.087H492.436ZM487.647 353L451.556 345.044L481.87 365.849L487.647 353Z" fill="#EDE9D1"/>
</svg>
